<svg xmlns="http://www.w3.org/2000/svg" width="256" height="256" fill="none" viewBox="0 0 110 110"><path fill="url(#a)" d="M 54.9188 0.000919274 C 50.3351 0.0222173 45.9578 0.413137 42.1063 1.09467 C 30.7601 3.09917 28.7 7.29477 28.7 15.0322 v 10.2188 h 26.8125 v 3.40625 h -26.8125 h -10.0625 c -7.79246 0 -14.6158 4.68372 -16.75 13.5938 c -2.46182 10.213 -2.57102 16.586 0 27.25 c 1.90593 7.93785 6.45754 13.5937 14.25 13.5938 h 9.21875 v -12.25 c 0 -8.8499 7.65714 -16.6562 16.75 -16.6563 h 26.7813 c 7.45495 0 13.4063 -6.13816 13.4063 -13.625 v -25.5313 c 0 -7.26634 -6.12998 -12.7248 -13.4063 -13.9375 C 64.2815 0.327944 59.5024 -0.020379 54.9188 0.000919274 Z m -14.5 8.21875 c 2.76955 0 5.03125 2.29865 5.03125 5.125 c -0.000002 2.81634 -2.2617 5.09375 -5.03125 5.09375 c -2.77948 -0.000001 -5.03125 -2.27742 -5.03125 -5.09375 c -0.000001 -2.82635 2.25177 -5.125 5.03125 -5.125 Z"/><path fill="url(#b)" d="m 85.6375 28.6572 v 11.9063 c 0 9.23075 -7.82589 17 -16.75 17 h -26.7813 c -7.33583 0 -13.4062 6.27848 -13.4063 13.625 v 25.5312 c 0 7.26634 6.31859 11.5403 13.4063 13.625 c 8.48733 2.49561 16.6262 2.94663 26.7813 0 c 6.75015 -1.95439 13.4063 -5.88761 13.4063 -13.625 V 86.5009 h -26.7813 v -3.40625 h 26.7813 h 13.4063 c 7.79246 0 10.6963 -5.43541 13.4062 -13.5938 c 2.79933 -8.39889 2.68022 -16.4758 0 -27.25 c -1.92578 -7.75744 -5.60387 -13.5938 -13.4062 -13.5938 Z m -15.0625 64.6563 c 2.77948 0.000003 5.03125 2.27742 5.03125 5.09375 c -0.000002 2.82635 -2.25178 5.125 -5.03125 5.125 c -2.76955 0 -5.03125 -2.29865 -5.03125 -5.125 c 0.000002 -2.81633 2.2617 -5.09375 5.03125 -5.09375 Z"/><defs><linearGradient id="a" x1="19.075" x2="34.898" y1="18.782" y2="34.658" gradientUnits="userSpaceOnUse"><stop stop-color="#387EB8"/><stop offset="1" stop-color="#366994"/></linearGradient><linearGradient id="b" x1="28.809" x2="45.803" y1="28.882" y2="45.163" gradientUnits="userSpaceOnUse"><stop stop-color="#FFE052"/><stop offset="1" stop-color="#FFC331"/></linearGradient></defs></svg>